<svg width="5" height="148" viewBox="0 0 5 148" fill="none" xmlns="http://www.w3.org/2000/svg">
<path d="M2.506 3.858C2.18867 3.858 1.89467 3.78333 1.624 3.634C1.36267 3.47533 1.15267 3.26533 0.994 3.004C0.835333 2.73333 0.756 2.42533 0.756 2.08C0.756 1.73467 0.835333 1.43133 0.994 1.17C1.15267 0.908666 1.36267 0.703333 1.624 0.554C1.89467 0.395333 2.18867 0.316 2.506 0.316C2.82333 0.316 3.11267 0.395333 3.374 0.554C3.64467 0.703333 3.85933 0.908666 4.018 1.17C4.17667 1.43133 4.256 1.73467 4.256 2.08C4.256 2.42533 4.17667 2.73333 4.018 3.004C3.85933 3.26533 3.64467 3.47533 3.374 3.634C3.11267 3.78333 2.82333 3.858 2.506 3.858ZM2.506 27.858C2.18867 27.858 1.89467 27.7833 1.624 27.634C1.36267 27.4753 1.15267 27.2653 0.994 27.004C0.835333 26.7333 0.756 26.4253 0.756 26.08C0.756 25.7347 0.835333 25.4313 0.994 25.17C1.15267 24.9087 1.36267 24.7033 1.624 24.554C1.89467 24.3953 2.18867 24.316 2.506 24.316C2.82333 24.316 3.11267 24.3953 3.374 24.554C3.64467 24.7033 3.85933 24.9087 4.018 25.17C4.17667 25.4313 4.256 25.7347 4.256 26.08C4.256 26.4253 4.17667 26.7333 4.018 27.004C3.85933 27.2653 3.64467 27.4753 3.374 27.634C3.11267 27.7833 2.82333 27.858 2.506 27.858ZM2.506 51.858C2.18867 51.858 1.89467 51.7833 1.624 51.634C1.36267 51.4753 1.15267 51.2653 0.994 51.004C0.835333 50.7333 0.756 50.4253 0.756 50.08C0.756 49.7347 0.835333 49.4313 0.994 49.17C1.15267 48.9087 1.36267 48.7033 1.624 48.554C1.89467 48.3953 2.18867 48.316 2.506 48.316C2.82333 48.316 3.11267 48.3953 3.374 48.554C3.64467 48.7033 3.85933 48.9087 4.018 49.17C4.17667 49.4313 4.256 49.7347 4.256 50.08C4.256 50.4253 4.17667 50.7333 4.018 51.004C3.85933 51.2653 3.64467 51.4753 3.374 51.634C3.11267 51.7833 2.82333 51.858 2.506 51.858ZM2.506 75.858C2.18867 75.858 1.89467 75.7833 1.624 75.634C1.36267 75.4753 1.15267 75.2653 0.994 75.004C0.835333 74.7333 0.756 74.4253 0.756 74.08C0.756 73.7347 0.835333 73.4313 0.994 73.17C1.15267 72.9087 1.36267 72.7033 1.624 72.554C1.89467 72.3953 2.18867 72.316 2.506 72.316C2.82333 72.316 3.11267 72.3953 3.374 72.554C3.64467 72.7033 3.85933 72.9087 4.018 73.17C4.17667 73.4313 4.256 73.7347 4.256 74.08C4.256 74.4253 4.17667 74.7333 4.018 75.004C3.85933 75.2653 3.64467 75.4753 3.374 75.634C3.11267 75.7833 2.82333 75.858 2.506 75.858ZM2.506 99.858C2.18867 99.858 1.89467 99.7833 1.624 99.634C1.36267 99.4753 1.15267 99.2653 0.994 99.004C0.835333 98.7333 0.756 98.4253 0.756 98.08C0.756 97.7347 0.835333 97.4313 0.994 97.17C1.15267 96.9087 1.36267 96.7033 1.624 96.554C1.89467 96.3953 2.18867 96.316 2.506 96.316C2.82333 96.316 3.11267 96.3953 3.374 96.554C3.64467 96.7033 3.85933 96.9087 4.018 97.17C4.17667 97.4313 4.256 97.7347 4.256 98.08C4.256 98.4253 4.17667 98.7333 4.018 99.004C3.85933 99.2653 3.64467 99.4753 3.374 99.634C3.11267 99.7833 2.82333 99.858 2.506 99.858ZM2.506 123.858C2.18867 123.858 1.89467 123.783 1.624 123.634C1.36267 123.475 1.15267 123.265 0.994 123.004C0.835333 122.733 0.756 122.425 0.756 122.08C0.756 121.735 0.835333 121.431 0.994 121.17C1.15267 120.909 1.36267 120.703 1.624 120.554C1.89467 120.395 2.18867 120.316 2.506 120.316C2.82333 120.316 3.11267 120.395 3.374 120.554C3.64467 120.703 3.85933 120.909 4.018 121.17C4.17667 121.431 4.256 121.735 4.256 122.08C4.256 122.425 4.17667 122.733 4.018 123.004C3.85933 123.265 3.64467 123.475 3.374 123.634C3.11267 123.783 2.82333 123.858 2.506 123.858ZM2.506 147.858C2.18867 147.858 1.89467 147.783 1.624 147.634C1.36267 147.475 1.15267 147.265 0.994 147.004C0.835333 146.733 0.756 146.425 0.756 146.08C0.756 145.735 0.835333 145.431 0.994 145.17C1.15267 144.909 1.36267 144.703 1.624 144.554C1.89467 144.395 2.18867 144.316 2.506 144.316C2.82333 144.316 3.11267 144.395 3.374 144.554C3.64467 144.703 3.85933 144.909 4.018 145.17C4.17667 145.431 4.256 145.735 4.256 146.08C4.256 146.425 4.17667 146.733 4.018 147.004C3.85933 147.265 3.64467 147.475 3.374 147.634C3.11267 147.783 2.82333 147.858 2.506 147.858Z" fill="#FB6D3A"/>
</svg>
